<svg width="21" height="23" viewBox="0 0 21 23" fill="none" xmlns="http://www.w3.org/2000/svg">
<path d="M11.7522 22.279L19.567 17.7489C20.4107 17.2567 20.7824 16.8348 20.7824 16.202C20.7824 15.5592 20.4107 15.1473 19.567 14.6451L18.2009 13.8516L19.567 13.058C20.4107 12.5658 20.7824 12.144 20.7824 11.5112C20.7824 10.8783 20.4107 10.4565 19.567 9.96429L17.9498 9.02009L19.567 8.08594C20.4107 7.59375 20.7824 7.17187 20.7824 6.53906C20.7824 5.89621 20.4107 5.48437 19.567 4.98214L11.7522 0.452009C11.2299 0.15067 10.8181 0 10.3962 0C9.96429 0 9.55245 0.15067 9.03013 0.452009L1.2154 4.98214C0.371652 5.48437 0 5.89621 0 6.53906C0 7.17187 0.371652 7.59375 1.2154 8.08594L2.83259 9.03013L1.2154 9.96429C0.371652 10.4565 0 10.8783 0 11.5112C0 12.144 0.371652 12.5658 1.2154 13.058L2.59152 13.8516L1.2154 14.6451C0.371652 15.1473 0 15.5592 0 16.202C0 16.8348 0.371652 17.2567 1.2154 17.7489L9.03013 22.279C9.55245 22.5804 9.96429 22.731 10.3962 22.731C10.8181 22.731 11.2299 22.5804 11.7522 22.279ZM10.3962 13.0681C10.8181 13.0681 11.2299 12.9275 11.7522 12.6161L15.9911 10.1652L18.2009 11.4107C18.2411 11.4408 18.2712 11.4609 18.2712 11.5112C18.2712 11.5614 18.2411 11.5815 18.2009 11.6116L10.798 15.8203C10.6473 15.9107 10.5268 15.9509 10.3962 15.9509C10.2556 15.9509 10.135 15.9107 9.98437 15.8203L2.59152 11.6116C2.54129 11.5815 2.52121 11.5614 2.52121 11.5112C2.52121 11.4609 2.54129 11.4408 2.59152 11.4107L4.79129 10.1551L9.03013 12.6161C9.55245 12.9275 9.96429 13.0681 10.3962 13.0681ZM9.98437 20.5112L2.59152 16.2924C2.54129 16.2723 2.52121 16.2422 2.52121 16.202C2.52121 16.1518 2.54129 16.1317 2.59152 16.1016L4.55022 14.9866L9.03013 17.5882C9.55245 17.8996 9.96429 18.0502 10.3962 18.0502C10.8181 18.0502 11.2299 17.8996 11.7522 17.5882L16.2422 14.9866L18.2009 16.1016C18.2411 16.1317 18.2712 16.1518 18.2712 16.202C18.2712 16.2422 18.2411 16.2723 18.2009 16.2924L10.798 20.5112C10.6473 20.5915 10.5268 20.6417 10.3962 20.6417C10.2556 20.6417 10.135 20.5915 9.98437 20.5112Z" fill="#828282"/>
</svg>
