<svg width="23" height="23" viewBox="0 0 23 23" fill="none" xmlns="http://www.w3.org/2000/svg">
<path d="M11.5 23C17.7899 23 23 17.8011 23 11.5C23 5.21007 17.7899 0 11.4889 0C5.19894 0 0 5.21007 0 11.5C0 17.8011 5.21007 23 11.5 23ZM11.5 20.7401C6.37899 20.7401 2.27106 16.621 2.27106 11.5C2.27106 6.37899 6.36786 2.27106 11.4889 2.27106C16.6099 2.27106 20.7289 6.37899 20.7401 11.5C20.7401 16.621 16.621 20.7401 11.5 20.7401ZM16.2759 12.3795C16.5319 12.6244 16.8214 12.6467 17.0774 12.4017L18.6583 10.8209C18.9032 10.5871 18.8921 10.2754 18.636 10.0305L18.2575 9.64085C18.0349 9.4182 17.8901 9.3848 17.6452 9.40707L17.0663 9.47386L16.6655 9.09535L16.8437 8.38287C16.9327 7.98209 16.7991 7.59245 16.3872 7.19168L15.3296 6.13408C13.8156 4.6423 11.0213 4.48645 9.485 6.02275C9.21781 6.28993 9.25121 6.60165 9.40707 6.80203C9.55179 6.94676 9.78558 7.03582 10.0082 6.95789C11.0213 6.65731 11.9119 6.60165 12.6467 7.04695L12.2682 8.04889C12.09 8.52759 12.1791 8.8727 12.4797 9.18442L13.6375 10.3311C13.8935 10.5983 14.1607 10.6651 14.5392 10.5871L15.3296 10.4313L15.7193 10.8209L15.6636 11.3998C15.6302 11.6447 15.6636 11.8117 15.8863 12.0121L16.2759 12.3795ZM6.70184 17.0663C7.21394 17.5673 7.79284 17.5339 8.29381 16.955L13.2701 11.2773L11.6002 9.61859L5.91142 14.5615C5.33253 15.0736 5.29913 15.6525 5.8001 16.1534L6.70184 17.0663Z" fill="#2F80ED"/>
</svg>
