<svg width="23" height="20" viewBox="0 0 23 20" fill="none" xmlns="http://www.w3.org/2000/svg">
<path d="M2.74427 8.69298H8.75155C10.5587 8.69298 11.4958 7.75591 11.4958 5.97381V2.71917C11.4958 0.937068 10.5587 0 8.75155 0H2.74427C0.937068 0 0 0.928701 0 2.71917V5.97381C0 7.76428 0.937068 8.69298 2.74427 8.69298ZM2.84467 7.05311C2.06657 7.05311 1.63987 6.64314 1.63987 5.83157V2.8614C1.63987 2.04984 2.06657 1.63987 2.84467 1.63987H8.65951C9.42925 1.63987 9.85595 2.04984 9.85595 2.8614V5.83157C9.85595 6.64314 9.42925 7.05311 8.65951 7.05311H2.84467ZM18.3983 9.50455C18.6661 9.86431 18.9924 9.85595 19.2601 9.50455L20.8916 7.31248C21.2597 6.82721 21.0924 6.30848 20.4482 6.30848H19.3689V6.04911C19.3689 3.59767 17.6872 1.91597 15.2274 1.91597H13.9054C13.5791 1.91597 13.303 2.19207 13.303 2.51837C13.303 2.85304 13.5791 3.12914 13.9054 3.12914H15.219C16.9844 3.12914 18.2394 4.27537 18.2394 6.04911V6.30848H17.2019C16.5828 6.30848 16.4154 6.82721 16.7752 7.31248L18.3983 9.50455ZM7.77264 17.821H9.08621C9.42088 17.821 9.68861 17.5533 9.68861 17.2186C9.68861 16.8923 9.42088 16.6162 9.08621 16.6162H7.77264C6.00728 16.6162 4.75227 15.47 4.75227 13.6963V13.4285H5.78974C6.41724 13.4285 6.57621 12.9182 6.21644 12.4329L4.60167 10.2324C4.33394 9.87268 3.99927 9.88105 3.73991 10.2324L2.1084 12.4329C1.74027 12.9182 1.89924 13.4285 2.54347 13.4285H3.63114V13.6963C3.63114 16.1477 5.30447 17.821 7.77264 17.821ZM14.2401 19.737H20.2557C22.0546 19.737 23 18.8083 23 17.0262V13.7716C23 11.9811 22.0546 11.0524 20.2557 11.0524H14.2401C12.4413 11.0524 11.4958 11.9811 11.4958 13.7716V17.0262C11.4958 18.8167 12.4413 19.737 14.2401 19.737ZM14.3405 18.0971C13.5624 18.0971 13.1357 17.6955 13.1357 16.884V13.9138C13.1357 13.0939 13.5624 12.6923 14.3405 12.6923H20.1553C20.9251 12.6923 21.3601 13.0939 21.3601 13.9138V16.884C21.3601 17.6955 20.9251 18.0971 20.1553 18.0971H14.3405Z" fill="#828282"/>
</svg>
