<svg width="24" height="21" viewBox="0 0 24 21" fill="none" xmlns="http://www.w3.org/2000/svg">
<path d="M1.67382 17.3245C0.848574 17.3245 0 17.9858 0 19.1433C0 20.2014 0.746091 20.9489 1.67382 20.9489C2.4396 20.9489 2.7809 20.4349 2.7809 20.4349V20.6589C2.7809 20.7648 2.88103 20.883 3.00496 20.883H3.5585V17.4036H2.7809V17.8451C2.7809 17.8451 2.43674 17.3245 1.67382 17.3245V17.3245ZM1.81233 18.036C2.49168 18.036 2.84804 18.6334 2.84804 19.143C2.84804 19.7106 2.42493 20.2497 1.81377 20.2497C1.30288 20.2497 0.791116 19.8359 0.791116 19.1355C0.791116 18.5033 1.23152 18.036 1.81233 18.036Z" fill="#2F80ED"/>
<path d="M4.63934 20.8829C4.51987 20.8829 4.41528 20.7972 4.41528 20.6589V17.4035H5.19288V17.8341C5.36908 17.5692 5.71333 17.3234 6.24172 17.3234C7.10534 17.3234 7.56522 18.0118 7.56522 18.6556V20.8829H7.02485C6.88316 20.8829 6.78762 20.7643 6.78762 20.6457V18.8269C6.78762 18.4701 6.56899 18.0367 6.06335 18.0367C5.51776 18.0367 5.19288 18.5523 5.19288 19.0378V20.8829L4.63934 20.8829Z" fill="#2F80ED"/>
<path d="M9.83201 17.3245C9.00677 17.3245 8.1582 17.9858 8.1582 19.1433C8.1582 20.2014 8.90429 20.9489 9.83201 20.9489C10.5978 20.9489 10.9391 20.4349 10.9391 20.4349V20.6589C10.9391 20.7648 11.0392 20.883 11.1631 20.883H11.7167V15.6638H10.9391V17.8451C10.9391 17.8451 10.5949 17.3245 9.83201 17.3245V17.3245ZM9.97052 18.036C10.6499 18.036 11.0062 18.6334 11.0062 19.143C11.0062 19.7106 10.5831 20.2497 9.97196 20.2497C9.46107 20.2497 8.94931 19.8359 8.94931 19.1355C8.94931 18.5033 9.38971 18.036 9.97052 18.036Z" fill="#2F80ED"/>
<path d="M12.7973 20.8829C12.6778 20.8829 12.5732 20.7972 12.5732 20.6589V17.4035H13.3508V17.9834C13.4847 17.6586 13.7735 17.364 14.2866 17.364C14.4296 17.364 14.5634 17.3903 14.5634 17.3903V18.1943C14.5634 18.1943 14.3964 18.1284 14.1943 18.1284C13.6487 18.1284 13.3508 18.644 13.3508 19.1295V20.8829H12.7973Z" fill="#2F80ED"/>
<path d="M19.2817 20.8829C19.1622 20.8829 19.0576 20.7972 19.0576 20.6589V17.4035H19.8352V20.8829L19.2817 20.8829Z" fill="#2F80ED"/>
<path d="M22.1152 17.3245C21.29 17.3245 20.4414 17.9858 20.4414 19.1433C20.4414 20.2014 21.1875 20.9489 22.1152 20.9489C22.881 20.9489 23.2223 20.4349 23.2223 20.4349V20.6589C23.2223 20.7648 23.3224 20.883 23.4464 20.883H23.9999V15.6638H23.2223V17.8451C23.2223 17.8451 22.8781 17.3245 22.1152 17.3245V17.3245ZM22.2537 18.036C22.9331 18.036 23.2894 18.6334 23.2894 19.143C23.2894 19.7106 22.8663 20.2497 22.2552 20.2497C21.7443 20.2497 21.2325 19.8359 21.2325 19.1355C21.2325 18.5033 21.6729 18.036 22.2537 18.036Z" fill="#2F80ED"/>
<path d="M19.4409 16.6532C19.7249 16.6532 19.9551 16.423 19.9551 16.139C19.9551 15.8551 19.7249 15.6249 19.4409 15.6249C19.157 15.6249 18.9268 15.8551 18.9268 16.139C18.9268 16.423 19.157 16.6532 19.4409 16.6532Z" fill="#2F80ED"/>
<path d="M16.6143 17.3233C15.75 17.3233 14.8005 17.9684 14.8005 19.1371C14.8005 20.202 15.6093 20.949 16.6124 20.949C17.8487 20.949 18.4523 19.9552 18.4523 19.1438C18.4523 18.1482 17.675 17.3233 16.6143 17.3233V17.3233ZM16.6171 18.0495C17.2148 18.0495 17.6606 18.5311 17.6606 19.1392C17.6606 19.7579 17.1873 20.2353 16.6189 20.2353C16.0912 20.2353 15.5783 19.8058 15.5783 19.1496C15.5783 18.4825 16.0661 18.0495 16.6171 18.0495V18.0495Z" fill="#2F80ED"/>
<path d="M17.8571 4.05227L19.8466 0.605836C19.9589 0.412628 19.891 0.167198 19.7004 0.0549274C19.5098 -0.0573413 19.2618 0.00792993 19.1521 0.201139L17.1364 3.69196C15.5986 2.98962 13.8676 2.59797 12.006 2.59797C10.1444 2.59797 8.4133 2.98961 6.87546 3.69196L4.85981 0.201139C4.74754 0.00792993 4.50212 -0.0573413 4.30891 0.0549274C4.1157 0.167198 4.05042 0.412628 4.16269 0.605836L6.15222 4.05227C2.72145 5.91126 0.397715 9.3838 0.013916 13.449H23.998C23.6142 9.38377 21.2905 5.91122 17.8571 4.05227H17.8571ZM6.49948 10.0809C5.94335 10.0809 5.49427 9.62923 5.49427 9.07571C5.49427 8.51958 5.94597 8.0705 6.49948 8.0705C7.05561 8.0705 7.50469 8.52219 7.50469 9.07571C7.50732 9.62923 7.05561 10.0809 6.49948 10.0809ZM17.5098 10.0809C16.9537 10.0809 16.5046 9.62923 16.5046 9.07571C16.5046 8.51958 16.9563 8.0705 17.5098 8.0705C18.066 8.0705 18.515 8.52219 18.515 9.07571C18.5177 9.62923 18.066 10.0809 17.5098 10.0809Z" fill="#2F80ED"/>
</svg>
