<svg width="24" height="24" viewBox="0 0 24 24" fill="none" xmlns="http://www.w3.org/2000/svg">
<path d="M12 24C18.6274 24 24 18.6274 24 12C24 5.37257 18.6274 0 12 0C5.37257 0 0 5.37257 0 12C0 18.6274 5.37257 24 12 24ZM12.75 16.1809C13.9288 16.2787 14.9288 16.5979 15.767 17.0237C14.8512 18.9943 13.6082 20.5644 12.75 21.5141V16.1809ZM12.75 14.6763V12.75H16.9401C16.8595 13.7591 16.6386 14.7225 16.331 15.6239C15.3328 15.1334 14.1455 14.7739 12.75 14.6763ZM12.75 11.25V9.32405C14.1606 9.22545 15.3589 8.85928 16.3638 8.36067C16.671 9.26356 16.8853 10.2316 16.9515 11.25H12.75V11.25ZM12.75 7.81949V2.55948C13.6374 3.50356 14.8862 5.03402 15.796 6.96186C14.9519 7.39518 13.9423 7.72055 12.75 7.81949ZM11.25 7.82175C10.0605 7.72599 9.04918 7.40282 8.19997 6.97048C9.11011 5.03858 10.3613 3.50498 11.25 2.55953V7.82175ZM11.25 9.32562V11.25H7.04851C7.11448 10.2347 7.32769 9.26934 7.63347 8.36875C8.64318 8.86633 9.84279 9.23015 11.25 9.32562ZM11.25 12.75V14.6747C9.85783 14.7692 8.669 15.1263 7.66609 15.6156C7.36002 14.7166 7.14034 13.756 7.05992 12.75H11.25V12.75ZM11.25 16.1786V21.514C10.3906 20.5629 9.14503 18.9897 8.22887 17.015C9.07215 16.5901 10.0741 16.2733 11.25 16.1786ZM9.92268 22.2933C8.06914 21.9198 6.3911 21.0565 5.02918 19.8449C5.41783 19.2782 6.04212 18.5131 6.93874 17.8257C7.84962 19.7402 9.02664 21.2784 9.92268 22.2933ZM17.054 17.8408C17.9551 18.5403 18.5697 19.3156 18.9403 19.872C17.5838 21.0693 15.917 21.9225 14.0773 22.2932C14.971 21.281 16.1441 19.7483 17.054 17.8408ZM17.6523 16.414C18.0615 15.2852 18.3543 14.0561 18.4442 12.75H22.4729C22.3104 15.0406 21.41 17.1303 20.0085 18.7825C19.5076 18.081 18.7372 17.1895 17.6523 16.414ZM18.455 11.25C18.3817 9.93042 18.0947 8.69461 17.6837 7.56353C18.752 6.79332 19.5126 5.91238 20.0086 5.21755C21.41 6.86983 22.3105 8.9594 22.473 11.25H18.455V11.25ZM17.0797 6.13925C16.1512 4.2239 14.936 2.69819 14.0058 1.69303C15.8737 2.05587 17.5663 2.91522 18.9403 4.128C18.5731 4.67936 17.9665 5.44516 17.0797 6.13925ZM6.91298 6.15443C6.03027 5.47224 5.41416 4.71639 5.02927 4.15504C6.40864 2.928 8.11239 2.05856 9.99414 1.69308C9.06152 2.70083 7.84247 4.23198 6.91298 6.15443ZM6.31107 7.57753C5.90282 8.70475 5.61796 9.93585 5.54493 11.25H1.52709C1.68857 8.97282 2.57951 6.89422 3.967 5.24655C4.47762 5.94578 5.24601 6.81732 6.31107 7.57753ZM5.5558 12.75C5.64529 14.0508 5.93618 15.2752 6.34271 16.4002C5.26119 17.1655 4.48251 18.0473 3.96686 18.7534C2.57946 17.1057 1.68857 15.0272 1.52704 12.75H5.5558V12.75Z" fill="#2F80ED"/>
</svg>
