<svg width="48" height="48" viewBox="0 0 48 48" fill="none" xmlns="http://www.w3.org/2000/svg">
<path d="M25.5318 23.9998L36.6825 12.8491C37.1055 12.4261 37.1055 11.7401 36.6825 11.317C36.2594 10.894 35.5735 10.894 35.1504 11.317L23.9998 22.4677L12.8491 11.317C12.4261 10.894 11.7401 10.894 11.317 11.317C10.894 11.7401 10.894 12.4261 11.317 12.8491L22.4677 23.9998L11.317 35.1504C10.894 35.5735 10.894 36.2594 11.317 36.6825C11.7401 37.1055 12.4261 37.1055 12.8491 36.6825L23.9998 25.5318L35.1504 36.6825C35.5735 37.1055 36.2594 37.1055 36.6825 36.6825C37.1055 36.2594 37.1055 35.5735 36.6825 35.1504L25.5318 23.9998Z" fill="#2F80ED"/>
</svg>
