<svg width="75" height="20" viewBox="0 0 75 20" fill="none" xmlns="http://www.w3.org/2000/svg">
<g clip-path="url(#clip0_2_4)">
<path d="M7.93434 20H0.472229V0.606079H7.85858C9.85354 0.606079 11.577 0.994337 13.029 1.77085C14.4874 2.54106 15.6111 3.65217 16.4003 5.10419C17.1957 6.5499 17.5935 8.28286 17.5935 10.3031C17.5935 12.3233 17.1989 14.0594 16.4097 15.5114C15.6206 16.9571 14.5032 18.0682 13.0575 18.8447C11.6117 19.6149 9.90405 20 7.93434 20ZM5.73738 15.5303H7.74496C8.70456 15.5303 9.52209 15.3757 10.1976 15.0663C10.8794 14.757 11.3971 14.2235 11.7506 13.4659C12.1105 12.7083 12.2904 11.6541 12.2904 10.3031C12.2904 8.95204 12.1073 7.89775 11.7412 7.14017C11.3813 6.38259 10.851 5.84915 10.1503 5.53979C9.45581 5.23046 8.60354 5.07577 7.59345 5.07577H5.73738V15.5303Z" fill="black"/>
<path d="M18.5837 20H16.7277L23.7825 0.606079H25.6765L32.7314 20H30.8754L24.7958 2.90721H24.6634L18.5837 20ZM19.9189 12.5663H29.5403V14.1572H19.9189V12.5663Z" fill="black"/>
<path d="M22.8852 20H21.0292L28.084 0.606079H29.978L37.0329 20H35.1769L29.0974 2.90721H28.9647L22.8852 20ZM24.2205 12.5663H33.8416V14.1572H24.2205V12.5663Z" fill="black"/>
<path d="M38.2311 20V0.606079H46.6022C48.0415 0.606079 49.3011 0.868075 50.3806 1.39207C51.4602 1.91605 52.2997 2.67048 52.8995 3.65532C53.4993 4.64017 53.7991 5.82072 53.7991 7.19699C53.7991 8.58588 53.4897 9.75697 52.8711 10.7103C52.2589 11.6635 51.3971 12.3832 50.286 12.8693C49.1811 13.3555 47.8902 13.5985 46.4129 13.5985H41.4129V9.50759H45.3522C45.9709 9.50759 46.498 9.43183 46.9337 9.28032C47.3755 9.1225 47.7133 8.87312 47.9469 8.53221C48.1869 8.1913 48.3069 7.74623 48.3069 7.19699C48.3069 6.64143 48.1869 6.19003 47.9469 5.84281C47.7133 5.48928 47.3755 5.23046 46.9337 5.0663C46.498 4.89586 45.9709 4.81063 45.3522 4.81063H43.4962V20H38.2311ZM49.5946 11.0985L54.4431 20H48.7235L43.9886 11.0985H49.5946Z" fill="black"/>
<path d="M55.2435 20V0.606079H60.5086V8.44699H60.7738L66.6071 0.606079H72.7435L66.1904 9.24243L72.8951 20H66.6071L62.2511 12.7273L60.5086 15V20H55.2435Z" fill="black"/>
</g>
<defs>
<clipPath id="clip0_2_4">
<rect width="74" height="20" fill="white" transform="translate(0.5)"/>
</clipPath>
</defs>
</svg>
