<svg width="402" height="51" viewBox="0 0 402 51" fill="none" xmlns="http://www.w3.org/2000/svg">
<path d="M18.6494 50.0021H0V0.00213623H18.4601C23.4459 0.00213623 27.7532 1.00311 31.3821 3.00507C35.0268 4.99075 37.8353 7.85534 39.8075 11.5988C41.7955 15.3261 42.7895 19.7938 42.7895 25.0022C42.7895 30.2105 41.8034 34.6864 39.8312 38.4299C37.8589 42.1571 35.0662 45.0217 31.4531 47.0237C27.84 49.0093 23.5721 50.0021 18.6494 50.0021ZM13.1587 38.4787H18.1761C20.5743 38.4787 22.6175 38.08 24.3058 37.2824C26.0098 36.4849 27.3035 35.1096 28.1871 33.1564C29.0865 31.2033 29.5361 28.4852 29.5361 25.0022C29.5361 21.5191 29.0786 18.801 28.1634 16.8478C27.2641 14.8947 25.9387 13.5194 24.1874 12.7219C22.4518 11.9244 20.3219 11.5256 17.7974 11.5256H13.1587V38.4787Z" fill="black"/>
<path d="M45.2643 50.0021H40.6256L58.2571 0.00213623H62.9906L80.6223 50.0021H75.9837L60.7897 5.93475H60.4586L45.2643 50.0021ZM48.6013 30.8371H72.647V34.9387H48.6013V30.8371Z" fill="black"/>
<path d="M56.0145 50.0021H51.376L69.0076 0.00213623H73.7411L91.3728 50.0021H86.7342L71.5402 5.93475H71.2086L56.0145 50.0021ZM59.3518 30.8371H83.397V34.9387H59.3518V30.8371Z" fill="black"/>
<path d="M94.3674 50.0021V0.00213623H115.289C118.886 0.00213623 122.034 0.677594 124.732 2.02851C127.43 3.37942 129.528 5.32442 131.027 7.86347C132.526 10.4025 133.275 13.4461 133.275 16.9943C133.275 20.5751 132.502 23.5943 130.956 26.052C129.426 28.5096 127.272 30.3651 124.495 31.6184C121.734 32.8716 118.508 33.4982 114.815 33.4982H102.319V22.9514H112.165C113.711 22.9514 115.028 22.756 116.117 22.3654C117.221 21.9585 118.065 21.3156 118.649 20.4367C119.249 19.5578 119.549 18.4104 119.549 16.9943C119.549 15.562 119.249 14.3983 118.649 13.5031C118.065 12.5916 117.221 11.9244 116.117 11.5011C115.028 11.0617 113.711 10.842 112.165 10.842H107.526V50.0021H94.3674ZM122.767 27.0529L134.885 50.0021H120.59L108.757 27.0529H122.767Z" fill="black"/>
<path d="M136.885 50.0021V0.00213623H150.044V20.217H150.706L165.285 0.00213623H180.621L164.244 22.2677L181 50.0021H165.285L154.398 31.2522L150.044 37.1115V50.0021H136.885Z" fill="black"/>
<path fill-rule="evenodd" clip-rule="evenodd" d="M218.643 25.0021L199.822 6.18058L202.179 3.82355L221 22.645L239.822 3.82355L242.179 6.18058L223.357 25.0021L242.179 43.8235L239.822 46.1805L221 27.3591L202.179 46.1805L199.822 43.8235L218.643 25.0021Z" fill="black"/>
<path d="M286.552 12.9134C285.655 11.7454 283.929 10.7703 281.723 10.7703C279.506 10.7703 277.781 11.7454 276.883 12.9134C275.779 14.3695 275.089 16.0218 275.089 25.0079C275.089 33.9801 275.779 35.5667 276.883 37.0203C277.781 38.1899 279.506 39.233 281.723 39.233C283.929 39.233 285.655 38.1899 286.552 37.0203C287.657 35.5667 288.347 33.9801 288.347 25.0079C288.347 16.0218 287.657 14.3695 286.552 12.9134ZM295.466 44.4817C291.869 48.0645 287.728 50.0043 281.723 50.0043C275.713 50.0043 271.562 48.0645 267.972 44.4817C262.797 39.3021 263.001 32.3924 263.001 25.0079C263.001 17.6135 262.797 10.7115 267.972 5.52923C271.562 1.93882 275.713 1.14441e-05 281.723 1.14441e-05C287.728 1.14441e-05 291.869 1.93882 295.466 5.52923C300.643 10.7115 300.442 17.6135 300.442 25.0079C300.442 32.3924 300.643 39.3021 295.466 44.4817Z" fill="black"/>
<path d="M307.597 49.5898V0.413532H319.685V38.8169H340.33V49.5898H307.597Z" fill="black"/>
<path d="M369.094 13.9549C367.991 12.2956 366.327 11.1849 363.299 11.1849H357.98L357.979 38.8169H363.298C366.327 38.8169 367.99 37.7077 369.094 36.0571C370.068 34.6777 370.41 33.3547 370.41 25.0079C370.41 16.7152 370.068 15.3358 369.094 13.9549ZM377.391 44.7545C374.002 48.1397 369.234 49.5898 364.122 49.5898H345.889V0.413532H364.123C369.236 0.413532 374.002 1.87082 377.391 5.25027C383.122 10.9827 382.496 17.2741 382.496 25.0079C382.496 32.7389 383.12 39.0221 377.391 44.7545Z" fill="black"/>
<path d="M389.728 0.413528H401.809V49.5984H389.723L389.728 0.413528Z" fill="black"/>
</svg>
