<svg width="100" height="28" viewBox="0 0 100 28" fill="none" xmlns="http://www.w3.org/2000/svg">
<g clip-path="url(#clip0_220_673)">
<path d="M10.0463 27.027H-0.0375977V0.81897H9.94396C12.6398 0.81897 14.9689 1.34364 16.9311 2.39299C18.9018 3.4338 20.4204 4.93531 21.4868 6.8975C22.5617 8.85116 23.0992 11.193 23.0992 13.923C23.0992 16.653 22.566 18.9991 21.4996 20.9613C20.4332 22.9149 18.9231 24.4164 16.9695 25.4658C15.0158 26.5066 12.7081 27.027 10.0463 27.027ZM7.07748 20.9869H9.79042C11.0872 20.9869 12.192 20.7779 13.1048 20.3598C14.0262 19.9418 14.7257 19.2209 15.2035 18.1971C15.6898 17.1734 15.9329 15.7487 15.9329 13.923C15.9329 12.0973 15.6855 10.6726 15.1907 9.64882C14.7044 8.62507 13.9878 7.90419 13.0408 7.48615C12.1024 7.06813 10.9507 6.85909 9.58568 6.85909H7.07748V20.9869Z" fill="black"/>
<path d="M24.4374 27.027H21.9292L31.4627 0.81897H34.0222L43.5558 27.027H41.0477L32.8321 3.92861H32.6531L24.4374 27.027ZM26.2418 16.9814H39.2435V19.1313H26.2418V16.9814Z" fill="black"/>
<path d="M30.2503 27.027H27.7422L37.2758 0.81897H39.8353L49.3689 27.027H46.8608L38.6452 3.92861H38.4659L30.2503 27.027ZM32.0548 16.9814H45.0563V19.1313H32.0548V16.9814Z" fill="black"/>
<path d="M50.9878 27.027V0.81897H62.3001C64.2452 0.81897 65.9473 1.17302 67.4061 1.88111C68.865 2.58921 69.9995 3.6087 70.81 4.93957C71.6205 6.27044 72.0256 7.86579 72.0256 9.72561C72.0256 11.6025 71.6076 13.185 70.7716 14.4733C69.9443 15.7615 68.7797 16.734 67.2782 17.391C65.7851 18.0479 64.0407 18.3763 62.0443 18.3763H55.2875V12.848H60.6109C61.447 12.848 62.1593 12.7457 62.7482 12.5409C63.3452 12.3276 63.8016 11.9907 64.1172 11.53C64.4416 11.0693 64.6037 10.4678 64.6037 9.72561C64.6037 8.97486 64.4416 8.36486 64.1172 7.89564C63.8016 7.41789 63.3452 7.06813 62.7482 6.8463C62.1593 6.61597 61.447 6.5008 60.6109 6.5008H58.1028V27.027H50.9878ZM66.344 14.9979L72.8959 27.027H65.1668L58.7683 14.9979H66.344Z" fill="black"/>
<path d="M73.9775 27.027V0.81897H81.0926V11.4148H81.4508L89.3337 0.81897H97.6262L88.7706 12.4897L97.831 27.027H89.3337L83.4472 17.199L81.0926 20.2702V27.027H73.9775Z" fill="black"/>
</g>
<defs>
<clipPath id="clip0_220_673">
<rect width="100" height="27.027" fill="white"/>
</clipPath>
</defs>
</svg>
