<svg width="74" height="20" viewBox="0 0 74 20" fill="none" xmlns="http://www.w3.org/2000/svg">
<path d="M7.59684 20H-0.027771V0H7.51944C9.55783 0 11.3189 0.400391 12.8025 1.20117C14.2926 1.99545 15.4408 3.14128 16.2471 4.63868C17.0599 6.12957 17.4663 7.91668 17.4663 10C17.4663 12.0833 17.0631 13.8737 16.2568 15.3711C15.4505 16.862 14.3087 18.0078 12.8315 18.8086C11.3543 19.6029 9.60945 20 7.59684 20ZM5.35204 15.3906H7.40334C8.38384 15.3906 9.21917 15.2311 9.90939 14.9121C10.6061 14.5931 11.135 14.043 11.4962 13.2617C11.8639 12.4805 12.0478 11.3932 12.0478 10C12.0478 8.60677 11.8607 7.51953 11.4866 6.73828C11.1189 5.95703 10.577 5.40691 9.86101 5.08789C9.15144 4.76889 8.28061 4.60937 7.24853 4.60937H5.35204V15.3906Z" fill="black"/>
<path d="M18.4782 20H16.5817L23.7901 0H25.7254L32.9339 20H31.0375L24.8255 2.37304H24.6902L18.4782 20ZM19.8424 12.334H29.6733V13.9746H19.8424V12.334Z" fill="black"/>
<path d="M22.8732 20H20.9768L28.1853 0H30.1206L37.3291 20H35.4327L29.2207 2.37304H29.0852L22.8732 20ZM24.2376 12.334H34.0682V13.9746H24.2376V12.334Z" fill="black"/>
<path d="M38.5533 20V0H47.1067C48.5774 0 49.8644 0.270183 50.9675 0.810549C52.0705 1.35091 52.9284 2.12891 53.5412 3.14453C54.1541 4.16016 54.4604 5.3776 54.4604 6.79688C54.4604 8.22917 54.1443 9.43686 53.5122 10.4199C52.8866 11.403 52.0061 12.1452 50.8708 12.6465C49.7418 13.1478 48.4228 13.3984 46.9133 13.3984H41.8044V9.17969H45.8295C46.4617 9.17969 47.0003 9.10156 47.4455 8.94532C47.8969 8.78256 48.2421 8.52539 48.4807 8.17383C48.7259 7.82226 48.8485 7.36329 48.8485 6.79688C48.8485 6.22396 48.7259 5.75846 48.4807 5.40038C48.2421 5.0358 47.8969 4.76889 47.4455 4.59961C47.0003 4.42383 46.4617 4.33595 45.8295 4.33595H43.9331V20H38.5533ZM50.1644 10.8203L55.1184 20H49.2743L44.4363 10.8203H50.1644Z" fill="black"/>
<path d="M55.9363 20V0H61.316V8.08594H61.5869L67.5473 0H73.8174L67.1216 8.90624L73.9722 20H67.5473L63.0964 12.5L61.316 14.8437V20H55.9363Z" fill="black"/>
</svg>
