<svg width="74" height="20" viewBox="0 0 74 20" fill="none" xmlns="http://www.w3.org/2000/svg">
<g clip-path="url(#clip0_174_1145)">
<path d="M7.43434 20H-0.027771V0.606079H7.35858C9.35354 0.606079 11.077 0.994337 12.529 1.77085C13.9874 2.54106 15.1111 3.65217 15.9003 5.10419C16.6957 6.5499 17.0935 8.28286 17.0935 10.3031C17.0935 12.3233 16.6989 14.0594 15.9097 15.5114C15.1206 16.9571 14.0032 18.0682 12.5575 18.8447C11.1117 19.6149 9.40405 20 7.43434 20ZM5.23738 15.5303H7.24496C8.20456 15.5303 9.02209 15.3757 9.69761 15.0663C10.3794 14.757 10.8971 14.2235 11.2506 13.4659C11.6105 12.7083 11.7904 11.6541 11.7904 10.3031C11.7904 8.95204 11.6073 7.89775 11.2412 7.14017C10.8813 6.38259 10.351 5.84915 9.65025 5.53979C8.95581 5.23046 8.10354 5.07577 7.09345 5.07577H5.23738V15.5303Z" fill="white"/>
<path d="M18.0837 20H16.2277L23.2825 0.606079H25.1765L32.2314 20H30.3754L24.2958 2.90721H24.1634L18.0837 20ZM19.4189 12.5663H29.0403V14.1572H19.4189V12.5663Z" fill="white"/>
<path d="M22.3852 20H20.5292L27.584 0.606079H29.478L36.5329 20H34.6769L28.5974 2.90721H28.4647L22.3852 20ZM23.7205 12.5663H33.3416V14.1572H23.7205V12.5663Z" fill="white"/>
<path d="M37.7311 20V0.606079H46.1022C47.5415 0.606079 48.8011 0.868075 49.8806 1.39207C50.9602 1.91605 51.7997 2.67048 52.3995 3.65532C52.9993 4.64017 53.2991 5.82072 53.2991 7.19699C53.2991 8.58588 52.9897 9.75697 52.3711 10.7103C51.7589 11.6635 50.8971 12.3832 49.786 12.8693C48.6811 13.3555 47.3902 13.5985 45.9129 13.5985H40.9129V9.50759H44.8522C45.4709 9.50759 45.998 9.43183 46.4337 9.28032C46.8755 9.1225 47.2133 8.87312 47.4469 8.53221C47.6869 8.1913 47.8069 7.74623 47.8069 7.19699C47.8069 6.64143 47.6869 6.19003 47.4469 5.84281C47.2133 5.48928 46.8755 5.23046 46.4337 5.0663C45.998 4.89586 45.4709 4.81063 44.8522 4.81063H42.9962V20H37.7311ZM49.0946 11.0985L53.9431 20H48.2235L43.4886 11.0985H49.0946Z" fill="white"/>
<path d="M54.7435 20V0.606079H60.0086V8.44699H60.2738L66.1071 0.606079H72.2435L65.6904 9.24243L72.3951 20H66.1071L61.7511 12.7273L60.0086 15V20H54.7435Z" fill="white"/>
</g>
<defs>
<clipPath id="clip0_174_1145">
<rect width="74" height="20" fill="white"/>
</clipPath>
</defs>
</svg>
