<svg width="21" height="21" viewBox="0 0 21 21" fill="none" xmlns="http://www.w3.org/2000/svg">
<path d="M0.724121 8.40576C0.724121 4.63453 0.724121 2.74891 1.89569 1.57733C3.06727 0.405762 4.95289 0.405762 8.72412 0.405762H12.7241C16.4954 0.405762 18.381 0.405762 19.5525 1.57733C20.7241 2.74891 20.7241 4.63453 20.7241 8.40576V12.4058C20.7241 16.177 20.7241 18.0626 19.5525 19.2342C18.381 20.4058 16.4954 20.4058 12.7241 20.4058H8.72412C4.95288 20.4058 3.06727 20.4058 1.89569 19.2342C0.724121 18.0626 0.724121 16.177 0.724121 12.4058V8.40576Z" fill="white"/>
<path d="M5.44434 4.56018H16.5554V15.4398H5.44434V4.56018Z" fill="url(#paint0_linear_129_1234)"/>
<path d="M9.49783 10.0989H10.4827L9.99028 8.1891L9.49783 10.0989ZM6.28516 5.41211V14.5933H15.7291V5.41211H6.28516ZM11.0232 12.1928L10.6629 10.9517H9.32965L8.96931 12.1928H8.05648L9.34166 7.80476V7.32432H10.5668L12.0321 12.1928H11.0232ZM13.4495 12.1928H12.4646V8.48941H13.4495V12.1928ZM12.963 8.045C12.6811 8.045 12.4525 7.81914 12.4525 7.54055C12.4525 7.26193 12.681 7.03607 12.963 7.03607C13.245 7.03607 13.4735 7.26193 13.4735 7.54055C13.4735 7.81914 13.2449 8.045 12.963 8.045Z" fill="url(#paint1_linear_129_1234)"/>
<defs>
<linearGradient id="paint0_linear_129_1234" x1="16.4976" y1="4.50229" x2="5.60833" y2="15.3915" gradientUnits="userSpaceOnUse">
<stop stop-color="#FFAA2A"/>
<stop offset="1" stop-color="#FFC06C"/>
</linearGradient>
<linearGradient id="paint1_linear_129_1234" x1="11.0071" y1="5.39669" x2="11.0071" y2="14.547" gradientUnits="userSpaceOnUse">
<stop stop-color="#251200"/>
<stop offset="1"/>
</linearGradient>
</defs>
</svg>
