<svg width="21" height="21" viewBox="0 0 21 21" fill="none" xmlns="http://www.w3.org/2000/svg">
<path d="M0.0673828 8.40576C0.0673828 4.63453 0.0673828 2.74891 1.23896 1.57733C2.41053 0.405762 4.29615 0.405762 8.06738 0.405762H12.0674C15.8386 0.405762 17.7242 0.405762 18.8958 1.57733C20.0674 2.74891 20.0674 4.63453 20.0674 8.40576V12.4058C20.0674 16.177 20.0674 18.0626 18.8958 19.2342C17.7242 20.4058 15.8386 20.4058 12.0674 20.4058H8.06738C4.29615 20.4058 2.41053 20.4058 1.23896 19.2342C0.0673828 18.0626 0.0673828 16.177 0.0673828 12.4058V8.40576Z" fill="white"/>
<path d="M4.76172 6.28608L9.9305 4.44446L15.2385 6.25334L14.379 13.0919L9.9305 15.5556L5.55157 13.1246L4.76172 6.28608Z" fill="#E23237"/>
<path d="M15.2386 6.25334L9.93066 4.44446V15.5556L14.3792 13.096L15.2386 6.25334Z" fill="#B52E31"/>
<path d="M9.93852 5.74182L6.71777 12.9078L7.92094 12.8873L8.56757 11.2707H11.4568L12.1649 12.9078L13.3148 12.9282L9.93852 5.74182ZM9.94674 8.03771L11.0353 10.3131H8.98906L9.94674 8.03771Z" fill="white"/>
</svg>
