<svg width="21" height="21" viewBox="0 0 21 21" fill="none" xmlns="http://www.w3.org/2000/svg">
<path d="M0.34375 8.40576C0.34375 4.63453 0.34375 2.74891 1.51532 1.57733C2.6869 0.405762 4.57251 0.405762 8.34375 0.405762H12.3438C16.115 0.405762 18.0006 0.405762 19.1722 1.57733C20.3438 2.74891 20.3438 4.63453 20.3438 8.40576V12.4058C20.3438 16.177 20.3438 18.0626 19.1722 19.2342C18.0006 20.4058 16.115 20.4058 12.3438 20.4058H8.34375C4.57251 20.4058 2.6869 20.4058 1.51532 19.2342C0.34375 18.0626 0.34375 16.177 0.34375 12.4058V8.40576Z" fill="white"/>
<path d="M14.9214 7.71258C14.9213 7.52625 14.8815 7.36161 14.8009 7.2203C14.7218 7.08135 14.6032 6.96489 14.4442 6.87281C13.1316 6.11598 11.8178 5.36146 10.5057 4.60386C10.1519 4.39964 9.80894 4.40708 9.45781 4.61424C8.93537 4.92235 6.3197 6.42092 5.54027 6.87238C5.21927 7.05821 5.06308 7.34259 5.063 7.71223C5.0625 9.23426 5.063 10.7562 5.0625 12.2783C5.06258 12.4606 5.10073 12.622 5.17777 12.7612C5.25696 12.9043 5.37717 13.024 5.53984 13.1182C6.31932 13.5696 8.93533 15.0681 9.45766 15.3763C9.80893 15.5835 10.1519 15.5909 10.5058 15.3866C11.818 14.629 13.1319 13.8745 14.4446 13.1177C14.6073 13.0236 14.7275 12.9038 14.8067 12.7608C14.8836 12.6216 14.9218 12.4602 14.9219 12.2779C14.9219 12.2779 14.9219 9.23464 14.9214 7.71258Z" fill="#5C8DBC"/>
<path d="M10.0073 9.98047L5.17773 12.7612C5.25693 12.9044 5.37714 13.024 5.53981 13.1182C6.31929 13.5696 8.93531 15.0681 9.45763 15.3763C9.80891 15.5836 10.1519 15.591 10.5058 15.3867C11.8179 14.629 13.1318 13.8746 14.4446 13.1177C14.6073 13.0236 14.7275 12.9039 14.8067 12.7608L10.0073 9.98047Z" fill="#1A4674"/>
<path d="M8.57715 10.8041C8.85818 11.2948 9.38648 11.6257 9.99252 11.6257C10.6023 11.6257 11.1336 11.2906 11.4132 10.7947L10.0076 9.98047L8.57715 10.8041Z" fill="#1A4674"/>
<path d="M14.921 7.71261C14.9209 7.52629 14.881 7.36164 14.8004 7.22034L10.0068 9.98048L14.8062 12.7608C14.8831 12.6217 14.9214 12.4602 14.9215 12.2779C14.9215 12.2779 14.9215 9.23468 14.921 7.71261Z" fill="#1B598E"/>
<path d="M14.6576 10.1792H14.2826V10.5544H13.9075V10.1792H13.5325V9.80424H13.9075V9.4292H14.2826V9.80424H14.6576V10.1792ZM13.2891 10.1792H12.9141V10.5544H12.5391V10.1792H12.1641V9.80424H12.5391V9.4292H12.9141V9.80424H13.2891V10.1792Z" fill="white"/>
<path d="M11.4126 10.7946C11.133 11.2905 10.6017 11.6256 9.99194 11.6256C9.38591 11.6256 8.85761 11.2947 8.57658 10.8041C8.4354 10.5579 8.36126 10.279 8.36155 9.9952C8.36155 9.09479 9.09153 8.36485 9.99194 8.36485C10.5941 8.36485 11.1196 8.69163 11.402 9.17723L12.8271 8.35663C12.2607 7.37887 11.2032 6.72107 9.99194 6.72107C8.18364 6.72107 6.71777 8.18697 6.71777 9.9952C6.71777 10.5884 6.87559 11.1447 7.15141 11.6246C7.7164 12.6075 8.7769 13.2694 9.99194 13.2694C11.2092 13.2694 12.2714 12.6049 12.8356 11.619L11.4126 10.7946Z" fill="white"/>
</svg>
