<svg width="21" height="21" viewBox="0 0 21 21" fill="none" xmlns="http://www.w3.org/2000/svg">
<path d="M0.895508 8.40576C0.895508 4.63453 0.895508 2.74891 2.06708 1.57733C3.23865 0.405762 5.12427 0.405762 8.89551 0.405762H12.8955C16.6667 0.405762 18.5524 0.405762 19.7239 1.57733C20.8955 2.74891 20.8955 4.63453 20.8955 8.40576V12.4058C20.8955 16.177 20.8955 18.0626 19.7239 19.2342C18.5524 20.4058 16.6667 20.4058 12.8955 20.4058H8.89551C5.12427 20.4058 3.23865 20.4058 2.06708 19.2342C0.895508 18.0626 0.895508 16.177 0.895508 12.4058V8.40576Z" fill="white"/>
<path d="M15.8937 7.73365C15.8936 7.54866 15.8541 7.38519 15.7741 7.24494C15.6955 7.10695 15.5778 6.99132 15.4199 6.8999C14.1168 6.14849 12.8123 5.39938 11.5096 4.64721C11.1584 4.44445 10.8179 4.45188 10.4693 4.65755C9.95058 4.96341 7.35366 6.45125 6.57981 6.89947C6.26112 7.084 6.10604 7.36635 6.10597 7.7333C6.10547 9.24443 6.10597 10.7556 6.10547 12.2667C6.10547 12.4476 6.14342 12.6079 6.21991 12.7461C6.29854 12.8882 6.41788 13.007 6.57939 13.1005C7.35328 13.5487 9.95054 15.0364 10.4691 15.3424C10.8179 15.5482 11.1584 15.5556 11.5097 15.3528C12.8125 14.6006 14.117 13.8514 15.4203 13.1C15.5818 13.0066 15.7012 12.8877 15.7798 12.7457C15.8562 12.6075 15.8942 12.4472 15.8942 12.2663C15.8942 12.2663 15.8942 9.24481 15.8937 7.73365Z" fill="#A179DC"/>
<path d="M11.0146 9.98523L6.21973 12.746C6.29836 12.8882 6.4177 13.007 6.57921 13.1005C7.3531 13.5487 9.95036 15.0364 10.4689 15.3424C10.8177 15.5482 11.1582 15.5555 11.5096 15.3527C12.8123 14.6005 14.1168 13.8514 15.4202 13.1C15.5817 13.0066 15.701 12.8877 15.7796 12.7457L11.0146 9.98523Z" fill="#280068"/>
<path d="M15.8936 7.73358C15.8935 7.54859 15.8539 7.38513 15.7739 7.24487L11.0146 9.98524L15.7796 12.7456C15.856 12.6074 15.894 12.4472 15.894 12.2662C15.894 12.2662 15.894 9.24475 15.8936 7.73358Z" fill="#390091"/>
<path d="M13.8375 8.95312V9.46918H14.3536V8.95312H14.6116V9.46918H15.1277V9.7272H14.6116V10.2432H15.1277V10.5012H14.6116V11.0173H14.3536V10.5012H13.8375V11.0173H13.5795V10.5012H13.0635V10.2432H13.5795V9.7272H13.0635V9.46918H13.5795V8.95312H13.8375ZM14.3536 9.72717H13.8375V10.2432H14.3536V9.72717Z" fill="white"/>
<path d="M11.0252 6.36149C12.3713 6.36149 13.5464 7.09248 14.1759 8.17905L14.1697 8.16859L12.586 9.08044C12.2741 8.55217 11.7021 8.19563 11.0459 8.18828L11.0252 8.18816C10.0246 8.18816 9.21343 8.99936 9.21343 9.99994C9.2131 10.3153 9.29549 10.6253 9.45238 10.8988C9.76468 11.444 10.3518 11.8118 11.0252 11.8118C11.7029 11.8118 12.2933 11.4394 12.604 10.8883L12.5965 10.9016L14.1777 11.8176C13.5552 12.895 12.3961 13.6237 11.0658 13.6382L11.0252 13.6385C9.67498 13.6385 8.4965 12.903 7.86861 11.8106C7.56209 11.2774 7.38672 10.6592 7.38672 9.99994C7.38672 7.9905 9.01569 6.36145 11.0252 6.36145L11.0252 6.36149Z" fill="white"/>
</svg>
