<svg width="21" height="20" viewBox="0 0 21 20" fill="none" xmlns="http://www.w3.org/2000/svg">
<rect x="0.895508" width="20" height="20" rx="4" fill="white"/>
<path d="M9.05547 15.5556C10.0777 15.5556 10.9073 14.7259 10.9073 13.7037V11.8519H9.05547C8.03324 11.8519 7.20361 12.6815 7.20361 13.7037C7.20361 14.7259 8.03324 15.5556 9.05547 15.5556Z" fill="#0ACF83"/>
<path d="M7.20361 9.99999C7.20361 8.97777 8.03324 8.14814 9.05547 8.14814H10.9073V11.8518H9.05547C8.03324 11.8518 7.20361 11.0222 7.20361 9.99999Z" fill="#A259FF"/>
<path d="M7.20361 6.29629C7.20361 5.27407 8.03324 4.44444 9.05547 4.44444H10.9073V8.14814H9.05547C8.03324 8.14814 7.20361 7.31852 7.20361 6.29629Z" fill="#F24E1E"/>
<path d="M10.9072 4.44444H12.7591C13.7813 4.44444 14.6109 5.27407 14.6109 6.29629C14.6109 7.31852 13.7813 8.14814 12.7591 8.14814H10.9072V4.44444Z" fill="#FF7262"/>
<path d="M14.6109 9.99999C14.6109 11.0222 13.7813 11.8518 12.7591 11.8518C11.7369 11.8518 10.9072 11.0222 10.9072 9.99999C10.9072 8.97777 11.7369 8.14814 12.7591 8.14814C13.7813 8.14814 14.6109 8.97777 14.6109 9.99999Z" fill="#1ABCFE"/>
</svg>
