<svg width="21" height="21" viewBox="0 0 21 21" fill="none" xmlns="http://www.w3.org/2000/svg">
<path d="M0.0673828 8.40576C0.0673828 4.63453 0.0673828 2.74891 1.23896 1.57733C2.41053 0.405762 4.29615 0.405762 8.06738 0.405762H12.0674C15.8386 0.405762 17.7242 0.405762 18.8958 1.57733C20.0674 2.74891 20.0674 4.63453 20.0674 8.40576V12.4058C20.0674 16.177 20.0674 18.0626 18.8958 19.2342C17.7242 20.4058 15.8386 20.4058 12.0674 20.4058H8.06738C4.29615 20.4058 2.41053 20.4058 1.23896 19.2342C0.0673828 18.0626 0.0673828 16.177 0.0673828 12.4058V8.40576Z" fill="white"/>
<path d="M7.22271 11.7106L5.51172 9.99956L11.0673 4.44446H14.4888L7.22271 11.7106ZM14.4888 9.57069H11.0673L9.7856 10.8524L11.4966 12.5634" fill="#42A5F5" fill-opacity="0.8"/>
<path d="M9.78516 14.2739L11.0668 15.5556H14.4884L11.4962 12.5634" fill="#0D47A1"/>
<path d="M8.0791 12.5642L9.7874 10.8555L11.4957 12.5638L9.7874 14.2725L8.0791 12.5642Z" fill="#42A5F5"/>
<path d="M9.78711 14.2725L11.4954 12.5642L11.7339 12.8027L10.0256 14.511L9.78711 14.2725Z" fill="url(#paint0_linear_129_1221)"/>
<path d="M9.78516 14.2739L12.3238 13.3968L11.4961 12.5629" fill="url(#paint1_linear_129_1221)"/>
<defs>
<linearGradient id="paint0_linear_129_1221" x1="10.6416" y1="13.418" x2="10.8801" y2="13.6565" gradientUnits="userSpaceOnUse">
<stop offset="0.2" stop-opacity="0.15"/>
<stop offset="0.85" stop-color="#616161" stop-opacity="0.01"/>
</linearGradient>
<linearGradient id="paint1_linear_129_1221" x1="9.78576" y1="13.4184" x2="12.3244" y2="13.4184" gradientUnits="userSpaceOnUse">
<stop offset="0.2" stop-opacity="0.55"/>
<stop offset="0.85" stop-color="#616161" stop-opacity="0.01"/>
</linearGradient>
</defs>
</svg>
