<svg width="21" height="21" viewBox="0 0 21 21" fill="none" xmlns="http://www.w3.org/2000/svg">
<path d="M0.447754 8.40576C0.447754 4.63453 0.447754 2.74891 1.61933 1.57733C2.7909 0.405762 4.67652 0.405762 8.44775 0.405762H12.4478C16.219 0.405762 18.1046 0.405762 19.2762 1.57733C20.4478 2.74891 20.4478 4.63453 20.4478 8.40576V12.4058C20.4478 16.177 20.4478 18.0626 19.2762 19.2342C18.1046 20.4058 16.219 20.4058 12.4478 20.4058H8.44775C4.67652 20.4058 2.7909 20.4058 1.61933 19.2342C0.447754 18.0626 0.447754 16.177 0.447754 12.4058V8.40576Z" fill="white"/>
<path d="M9.99991 4.5816C6.93205 4.5816 4.44434 7.06888 4.44434 10.1372C4.44434 12.5918 6.03618 14.6743 8.24359 15.4089C8.52123 15.4603 8.62319 15.2884 8.62319 15.1416C8.62319 15.0092 8.618 14.5715 8.61565 14.1073C7.07004 14.4433 6.74391 13.4518 6.74391 13.4518C6.49119 12.8096 6.12707 12.6389 6.12707 12.6389C5.62303 12.2941 6.16506 12.3012 6.16506 12.3012C6.72295 12.3404 7.01671 12.8737 7.01671 12.8737C7.5122 13.723 8.31636 13.4775 8.63338 13.3355C8.68323 12.9764 8.82723 12.7314 8.98609 12.5926C7.75215 12.4521 6.45494 11.9758 6.45494 9.84704C6.45494 9.24052 6.67197 8.7449 7.02738 8.35585C6.96969 8.2159 6.77955 7.65086 7.08119 6.88562C7.08119 6.88562 7.54771 6.7363 8.60937 7.4551C9.0525 7.33196 9.52777 7.27027 9.99991 7.26818C10.4721 7.27027 10.9477 7.33196 11.3917 7.4551C12.4521 6.7363 12.9179 6.88562 12.9179 6.88562C13.2203 7.65086 13.0301 8.2159 12.9724 8.35585C13.3286 8.7449 13.5441 9.24048 13.5441 9.84704C13.5441 11.9808 12.2445 12.4507 11.0074 12.5882C11.2067 12.7606 11.3842 13.0987 11.3842 13.617C11.3842 14.3603 11.3778 14.9586 11.3778 15.1416C11.3778 15.2895 11.4778 15.4627 11.7594 15.4081C13.9656 14.6727 15.5554 12.591 15.5554 10.1372C15.5554 7.06888 13.0681 4.5816 9.99991 4.5816Z" fill="#161614"/>
<path d="M6.52526 12.4956C6.51306 12.5232 6.46958 12.5315 6.43006 12.5126C6.38976 12.4945 6.3671 12.4568 6.38017 12.4291C6.39215 12.4007 6.43564 12.3928 6.47585 12.4118C6.51624 12.4299 6.53925 12.4679 6.52526 12.4956ZM6.79854 12.7395C6.77205 12.764 6.72025 12.7526 6.68508 12.7138C6.64875 12.6751 6.64195 12.6233 6.66883 12.5983C6.69615 12.5738 6.74639 12.5853 6.78282 12.624C6.81915 12.6632 6.82621 12.7147 6.7985 12.7395L6.79854 12.7395ZM6.98603 13.0514C6.95196 13.0751 6.89628 13.0529 6.8619 13.0035C6.82787 12.9541 6.82787 12.8949 6.86264 12.8711C6.89715 12.8474 6.95196 12.8687 6.98682 12.9178C7.0208 12.968 7.0208 13.0273 6.98599 13.0515L6.98603 13.0514ZM7.30306 13.4128C7.2726 13.4463 7.20777 13.4374 7.16027 13.3915C7.11174 13.3467 7.09819 13.2832 7.12873 13.2496C7.15953 13.2159 7.22476 13.2254 7.2726 13.2708C7.32084 13.3155 7.33556 13.3796 7.3031 13.4128H7.30306ZM7.71281 13.5348C7.69943 13.5783 7.63695 13.598 7.57403 13.5796C7.5112 13.5605 7.47007 13.5096 7.48275 13.4656C7.49582 13.4218 7.55856 13.4012 7.62196 13.421C7.6847 13.4399 7.72592 13.4905 7.71285 13.5348H7.71281ZM8.17919 13.5865C8.18076 13.6323 8.12739 13.6703 8.06133 13.6712C7.99489 13.6726 7.94116 13.6355 7.94047 13.5905C7.94047 13.5442 7.99262 13.5065 8.05902 13.5055C8.12508 13.5041 8.17919 13.541 8.17919 13.5865ZM8.63731 13.5689C8.64524 13.6136 8.59931 13.6596 8.53374 13.6718C8.46925 13.6835 8.40956 13.656 8.40132 13.6116C8.3933 13.5658 8.4401 13.5199 8.50446 13.508C8.57016 13.4966 8.62894 13.5235 8.63731 13.5689Z" fill="#161614"/>
</svg>
