<svg width="21" height="21" viewBox="0 0 21 21" fill="none" xmlns="http://www.w3.org/2000/svg">
<path d="M0.895508 8.40576C0.895508 4.63453 0.895508 2.74891 2.06708 1.57733C3.23865 0.405762 5.12427 0.405762 8.89551 0.405762H12.8955C16.6667 0.405762 18.5524 0.405762 19.7239 1.57733C20.8955 2.74891 20.8955 4.63453 20.8955 8.40576V12.4058C20.8955 16.177 20.8955 18.0626 19.7239 19.2342C18.5524 20.4058 16.6667 20.4058 12.8955 20.4058H8.89551C5.12427 20.4058 3.23865 20.4058 2.06708 19.2342C0.895508 18.0626 0.895508 16.177 0.895508 12.4058V8.40576Z" fill="white"/>
<path fill-rule="evenodd" clip-rule="evenodd" d="M11.9478 5.71654L14.2295 7.03393C14.2954 6.96423 14.371 6.90441 14.4539 6.85632C14.9271 6.58428 15.5307 6.7458 15.8055 7.21902C16.0776 7.69223 15.916 8.29576 15.4428 8.57062C15.3605 8.61804 15.2717 8.65338 15.1793 8.67555V11.3113C15.2707 11.3335 15.3585 11.3686 15.44 11.4155C15.916 11.6904 16.0776 12.2939 15.8027 12.7672C15.5307 13.2403 14.9243 13.4019 14.4511 13.1299C14.3594 13.0773 14.2768 13.0102 14.2065 12.9313L11.9387 14.2406C11.972 14.3411 11.9888 14.4464 11.9887 14.5523C11.9887 15.0963 11.5467 15.5412 10.9998 15.5412C10.4529 15.5412 10.0109 15.0991 10.0109 14.5523C10.0109 14.4551 10.0249 14.3612 10.0509 14.2725L7.76987 12.9555C7.70473 13.0238 7.6302 13.0825 7.54852 13.1299C7.07249 13.4019 6.46893 13.2403 6.19688 12.7672C5.92488 12.2939 6.0864 11.6904 6.55958 11.4155C6.64109 11.3686 6.72887 11.3335 6.82028 11.3112V8.67555C6.72786 8.65338 6.63912 8.61804 6.55676 8.57062C6.08355 8.29862 5.92203 7.69223 6.19407 7.21902C6.46611 6.7458 7.07245 6.58428 7.54567 6.85632C7.62819 6.90415 7.70341 6.96359 7.76903 7.03281L10.0513 5.71508C10.0244 5.62376 10.0108 5.52905 10.0109 5.43385C10.0109 4.88703 10.4529 4.44495 10.9998 4.44495C11.5467 4.44495 11.9887 4.88699 11.9887 5.43385C11.9887 5.53215 11.9744 5.62701 11.9478 5.71654ZM11.7101 6.12244L13.9972 7.44291C13.9608 7.57022 13.9504 7.70355 13.9665 7.83497C13.9827 7.96639 14.0251 8.09322 14.0912 8.20792C14.2305 8.45011 14.4572 8.61066 14.709 8.67323V11.3122C14.6961 11.3154 14.6833 11.3188 14.6706 11.3224L11.6836 6.14887C11.6926 6.14023 11.7015 6.13143 11.7101 6.12248V6.12244ZM10.3166 6.14945L7.3296 11.3229C7.31669 11.3192 7.3037 11.3157 7.29064 11.3125V8.67323C7.54235 8.61066 7.76914 8.45011 7.90836 8.20792C7.97465 8.093 8.01711 7.9659 8.03319 7.83422C8.04928 7.70253 8.03867 7.56895 8.00199 7.44145L10.2884 6.12136C10.2976 6.13089 10.307 6.14026 10.3166 6.14941V6.14945ZM11.2761 6.3838L14.2625 11.5561C14.1941 11.6214 14.1354 11.6962 14.0884 11.7782C14.0414 11.8597 14.0063 11.9475 13.9841 12.0389H8.01553C7.9933 11.9475 7.95818 11.8597 7.91122 11.7782C7.864 11.6968 7.80548 11.6224 7.73739 11.5574L10.7243 6.38403C10.8139 6.40981 10.9066 6.42285 10.9998 6.42276C11.0957 6.42276 11.1884 6.40918 11.2761 6.3838ZM11.7311 13.8861L14.0034 12.5742C13.9965 12.5527 13.9905 12.5311 13.9851 12.5093H8.01426C8.01109 12.5221 8.00766 12.5348 8.00399 12.5475L10.2873 13.8659C10.3795 13.77 10.4902 13.6938 10.6126 13.6418C10.7351 13.5898 10.8668 13.5631 10.9998 13.5634C11.1375 13.5631 11.2737 13.5917 11.3996 13.6473C11.5256 13.7029 11.6385 13.7842 11.7311 13.8861Z" fill="#E535AB"/>
</svg>
