<svg width="21" height="21" viewBox="0 0 21 21" fill="none" xmlns="http://www.w3.org/2000/svg">
<path d="M0.724121 8.40576C0.724121 4.63453 0.724121 2.74891 1.89569 1.57733C3.06727 0.405762 4.95289 0.405762 8.72412 0.405762H12.7241C16.4954 0.405762 18.381 0.405762 19.5525 1.57733C20.7241 2.74891 20.7241 4.63453 20.7241 8.40576V12.4058C20.7241 16.177 20.7241 18.0626 19.5525 19.2342C18.381 20.4058 16.4954 20.4058 12.7241 20.4058H8.72412C4.95288 20.4058 3.06727 20.4058 1.89569 19.2342C0.724121 18.0626 0.724121 16.177 0.724121 12.4058V8.40576Z" fill="white"/>
<path d="M9.54203 13.0373C9.54203 13.0373 9.11744 13.2843 9.84421 13.3678C10.7247 13.4682 11.1747 13.4539 12.145 13.2702C12.145 13.2702 12.4001 13.4301 12.7563 13.5687C10.5812 14.5009 7.83357 13.5147 9.54203 13.0373ZM9.27623 11.8209C9.27623 11.8209 8.80001 12.1734 9.52733 12.2486C10.4679 12.3456 11.2106 12.3536 12.4959 12.1061C12.4959 12.1061 12.6737 12.2863 12.9532 12.3849C10.3234 13.1539 7.39419 12.4455 9.27623 11.8209Z" fill="#5382A1"/>
<path d="M11.517 9.7573C12.0529 10.3743 11.3762 10.9296 11.3762 10.9296C11.3762 10.9296 12.737 10.2271 12.112 9.34735C11.5283 8.527 11.0807 8.11934 13.504 6.71393C13.504 6.71393 9.70021 7.66393 11.517 9.75727" fill="#E76F00"/>
<path d="M14.3937 13.9371C14.3937 13.9371 14.7079 14.196 14.0476 14.3963C12.7921 14.7766 8.82207 14.8915 7.7192 14.4114C7.32276 14.239 8.06622 13.9996 8.30007 13.9494C8.54396 13.8965 8.68335 13.9064 8.68335 13.9064C8.24245 13.5958 5.83359 14.5162 7.45978 14.7798C11.8946 15.499 15.544 14.456 14.3937 13.9371ZM9.74617 10.5604C9.74617 10.5604 7.72679 11.0401 9.03108 11.2142C9.58178 11.2879 10.6796 11.2713 11.7022 11.1856C12.5379 11.1151 13.3771 10.9652 13.3771 10.9652C13.3771 10.9652 13.0824 11.0914 12.8692 11.237C10.8185 11.7763 6.857 11.5254 7.99747 10.9737C8.96198 10.5075 9.7462 10.5604 9.7462 10.5604H9.74617ZM13.3688 12.5853C15.4534 11.502 14.4896 10.4611 13.8168 10.6013C13.6519 10.6356 13.5784 10.6653 13.5784 10.6653C13.5784 10.6653 13.6396 10.5695 13.7565 10.528C15.0874 10.0601 16.111 11.908 13.3269 12.6399C13.3269 12.6399 13.3592 12.6111 13.3688 12.5853Z" fill="#5382A1"/>
<path d="M12.1119 4.44449C12.1119 4.44449 13.2664 5.59941 11.0169 7.37526C9.21306 8.79984 10.6056 9.61208 11.0162 10.5401C9.96322 9.59011 9.19048 8.7538 9.70891 7.97547C10.4698 6.83287 12.5777 6.27892 12.1119 4.44446" fill="#E76F00"/>
<path d="M9.95123 15.5206C11.9522 15.6487 15.0249 15.4496 15.0977 14.5027C15.0977 14.5027 14.9578 14.8617 13.444 15.1467C11.7361 15.4681 9.62972 15.4306 8.38037 15.2246C8.3804 15.2246 8.63613 15.4363 9.95126 15.5206" fill="#5382A1"/>
</svg>
