<svg width="21" height="21" viewBox="0 0 21 21" fill="none" xmlns="http://www.w3.org/2000/svg">
<path d="M0.619629 8.40576C0.619629 4.63453 0.619629 2.74891 1.7912 1.57733C2.96277 0.405762 4.84839 0.405762 8.61963 0.405762H12.6196C16.3909 0.405762 18.2765 0.405762 19.4481 1.57733C20.6196 2.74891 20.6196 4.63453 20.6196 8.40576V12.4058C20.6196 16.177 20.6196 18.0626 19.4481 19.2342C18.2765 20.4058 16.3909 20.4058 12.6196 20.4058H8.61963C4.84839 20.4058 2.96277 20.4058 1.7912 19.2342C0.619629 18.0626 0.619629 16.177 0.619629 12.4058V8.40576Z" fill="white"/>
<path fill-rule="evenodd" clip-rule="evenodd" d="M10.9999 12.8154C14.0682 12.8154 16.5554 11.5548 16.5554 9.99997C16.5554 8.44512 14.0682 7.18457 10.9999 7.18457C7.9317 7.18457 5.44434 8.44512 5.44434 9.99997C5.44434 11.5548 7.9317 12.8154 10.9999 12.8154Z" fill="#6E81B6"/>
<path fill-rule="evenodd" clip-rule="evenodd" d="M12.1257 10.91L12.4012 9.49168C12.4634 9.17158 12.4117 8.93282 12.2476 8.78194C12.0886 8.63596 11.8186 8.56495 11.4224 8.56495H10.9452L11.0817 7.86226C11.0842 7.84918 11.0839 7.8357 11.0806 7.82278C11.0773 7.80986 11.0713 7.79783 11.0628 7.78754C11.0543 7.77725 11.0437 7.76896 11.0316 7.76328C11.0196 7.75759 11.0064 7.75464 10.9931 7.75464H10.3344C10.2911 7.75464 10.254 7.78534 10.2457 7.8278L9.95302 9.33348C9.92642 9.16405 9.86085 9.01841 9.75592 8.89823C9.56271 8.67707 9.25711 8.56495 8.84752 8.56495H7.57085C7.52759 8.56495 7.49044 8.59565 7.48218 8.63804L6.88986 11.6858C6.88469 11.7124 6.89161 11.7396 6.90881 11.7605C6.92594 11.7813 6.95146 11.7934 6.97854 11.7934H7.6424C7.68566 11.7934 7.72281 11.7627 7.73108 11.7201L7.87437 10.983H8.36854C8.62785 10.983 8.84578 10.9549 9.01587 10.8996C9.1898 10.843 9.34989 10.7471 9.49096 10.615C9.60496 10.5103 9.69915 10.393 9.77163 10.2665L9.65333 10.8754C9.64816 10.9019 9.65508 10.9293 9.67228 10.95C9.68941 10.9709 9.715 10.9829 9.74201 10.9829H10.4007C10.444 10.9829 10.4811 10.9522 10.4894 10.9098L10.8145 9.23688H11.2664C11.459 9.23688 11.5155 9.27523 11.5308 9.29169C11.5448 9.30674 11.5736 9.35975 11.5412 9.52682L11.2792 10.8753C11.2767 10.8884 11.2771 10.9018 11.2804 10.9147C11.2837 10.9276 11.2898 10.9397 11.2982 10.9499C11.3067 10.9602 11.3173 10.9685 11.3294 10.9742C11.3414 10.9799 11.3546 10.9828 11.3679 10.9829H12.037C12.058 10.9829 12.0783 10.9756 12.0945 10.9623C12.1106 10.949 12.1217 10.9305 12.1257 10.91ZM9.07183 9.7381C9.03045 9.95072 8.95252 10.1023 8.84007 10.1888C8.72586 10.2769 8.5432 10.3215 8.29713 10.3215H8.00288L8.21564 9.2266H8.59607C8.87554 9.2266 8.98813 9.28632 9.03334 9.33637C9.09602 9.40583 9.10932 9.54482 9.07183 9.7381ZM14.9002 8.89823C14.7071 8.67707 14.4015 8.56495 13.9919 8.56495H12.7152C12.6719 8.56495 12.6348 8.59565 12.6265 8.63804L12.0343 11.6858C12.029 11.7124 12.036 11.7396 12.0532 11.7605C12.0704 11.7813 12.096 11.7934 12.1228 11.7934H12.7868C12.8301 11.7934 12.8672 11.7627 12.8754 11.7201L13.0187 10.983H13.513C13.7723 10.983 13.9901 10.9549 14.1602 10.8996C14.3342 10.843 14.4943 10.7471 14.6353 10.615C14.753 10.5069 14.8498 10.3854 14.9232 10.2542C14.9965 10.123 15.0491 9.97665 15.0798 9.81918C15.1553 9.43082 15.0949 9.12099 14.9002 8.89823ZM14.2539 9.7381C14.2124 9.95072 14.1345 10.1023 14.0222 10.1888C13.9079 10.2769 13.7252 10.3215 13.4792 10.3215H13.1849L13.3976 9.2266H13.7781C14.0576 9.2266 14.1702 9.28632 14.2155 9.33637C14.278 9.40583 14.2914 9.54482 14.2539 9.7381Z" fill="white"/>
<path fill-rule="evenodd" clip-rule="evenodd" d="M8.57756 9.13622C8.82975 9.13622 8.9979 9.18277 9.08194 9.27588C9.16592 9.36899 9.18594 9.52888 9.142 9.75534C9.09605 9.9912 9.00764 10.1595 8.87665 10.2605C8.74565 10.3614 8.54626 10.4117 8.27862 10.4117H7.87474L8.12263 9.13622H8.57756ZM6.95996 11.703H7.62382L7.78136 10.8927H8.35003C8.60094 10.8927 8.80738 10.8663 8.96942 10.8136C9.13146 10.7609 9.27878 10.6725 9.41132 10.5484C9.52257 10.4463 9.61259 10.3334 9.68152 10.2101C9.75038 10.0867 9.79928 9.95069 9.82824 9.80189C9.89851 9.4406 9.8455 9.15919 9.66936 8.95765C9.49328 8.75605 9.21308 8.65528 8.82902 8.65528H7.55235L6.95996 11.703ZM10.3158 7.84497H10.9745L10.817 8.65528H11.4039C11.773 8.65528 12.0278 8.71964 12.1679 8.84842C12.3081 8.9772 12.3501 9.18593 12.294 9.47446L12.0185 10.8927H11.3493L11.6113 9.54419C11.6411 9.39076 11.6302 9.28616 11.5784 9.23033C11.5266 9.17457 11.4163 9.14663 11.2479 9.14663H10.7214L10.3821 10.8927H9.72344L10.3158 7.84497ZM13.7596 9.13622C14.0118 9.13622 14.1799 9.18277 14.264 9.27588C14.348 9.36899 14.3679 9.52888 14.324 9.75534C14.2782 9.9912 14.1898 10.1595 14.0587 10.2605C13.9278 10.3614 13.7283 10.4117 13.4608 10.4117H13.0569L13.3047 9.13622H13.7596ZM12.1419 11.703H12.8058L12.9633 10.8927H13.5319C13.7829 10.8927 13.9894 10.8663 14.1514 10.8136C14.3134 10.7609 14.4608 10.6725 14.5933 10.5484C14.7046 10.4463 14.7946 10.3334 14.8634 10.2101C14.9323 10.0867 14.9813 9.95069 15.0103 9.80189C15.0805 9.4406 15.0275 9.15919 14.8514 8.95765C14.6752 8.75605 14.3951 8.65528 14.011 8.65528H12.7343L12.1419 11.703Z" fill="black"/>
</svg>
