<svg width="21" height="21" viewBox="0 0 21 21" fill="none" xmlns="http://www.w3.org/2000/svg">
<path d="M0.447754 8.40576C0.447754 4.63453 0.447754 2.74891 1.61933 1.57733C2.7909 0.405762 4.67652 0.405762 8.44775 0.405762H12.4478C16.219 0.405762 18.1046 0.405762 19.2762 1.57733C20.4478 2.74891 20.4478 4.63453 20.4478 8.40576V12.4058C20.4478 16.177 20.4478 18.0626 19.2762 19.2342C18.1046 20.4058 16.219 20.4058 12.4478 20.4058H8.44775C4.67652 20.4058 2.7909 20.4058 1.61933 19.2342C0.447754 18.0626 0.447754 16.177 0.447754 12.4058V8.40576Z" fill="white"/>
<path d="M4.44434 4.53699H15.5554V15.4629H4.44434V4.53699Z" fill="url(#paint0_linear_129_1254)"/>
<path d="M5.32812 5.40588H14.672V14.5941H5.32812V5.40588Z" fill="url(#paint1_linear_129_1254)"/>
<path d="M7.12943 7.61638C7.12943 7.61638 7.83195 7.5979 8.41025 7.5979C8.99462 7.5979 9.41129 7.73538 9.69103 7.97697C9.9584 8.20527 10.1387 8.59446 10.1387 9.03749C10.1387 9.48053 10.0019 9.84305 9.75314 10.0979C9.42984 10.4269 9.0531 10.6216 8.41025 10.6485C8.23266 10.6559 8.06829 10.6577 8.06829 10.6577V12.0979H7.12939L7.12943 7.61638ZM8.06825 9.85983C8.17025 9.86975 8.23417 9.86498 8.38536 9.86316C8.88899 9.85712 9.19977 9.55086 9.19977 9.08772C9.19977 8.67164 8.94351 8.33001 8.46003 8.31231C8.26732 8.30527 8.06825 8.31231 8.06825 8.31231V9.85983Z" fill="url(#paint2_linear_129_1254)"/>
<path d="M10.497 11.0946C10.6862 11.2107 11.1328 11.3846 11.4371 11.3846C11.7481 11.3846 11.8765 11.275 11.8765 11.1041C11.8765 10.933 11.7751 10.7533 11.3896 10.6234C10.7067 10.3909 10.443 10.1125 10.4498 9.72285C10.4498 9.09356 10.9772 8.6217 11.7953 8.6217C12.1807 8.6217 12.4886 8.7477 12.6913 8.85022V9.60548C12.5424 9.52333 12.1131 9.33993 11.8292 9.33993C11.5788 9.33993 11.4369 9.44252 11.4369 9.61333C11.4369 9.77067 11.5655 9.85274 11.9712 9.99644C12.5999 10.2153 12.8636 10.5366 12.8703 11.029C12.8703 11.6514 12.3905 12.1463 11.4369 12.1163C11.1097 12.106 10.7471 11.9766 10.4969 11.84L10.497 11.0946Z" fill="url(#paint3_linear_129_1254)"/>
<defs>
<linearGradient id="paint0_linear_129_1254" x1="7.14452" y1="3.9664" x2="11.4038" y2="12.9664" gradientUnits="userSpaceOnUse">
<stop stop-color="#A0CBFF"/>
<stop offset="0.394" stop-color="#A0CBFE"/>
<stop offset="0.583" stop-color="#8EC2FC"/>
<stop offset="0.784" stop-color="#83BCFB"/>
<stop offset="1" stop-color="#7FBAFB"/>
</linearGradient>
<linearGradient id="paint1_linear_129_1254" x1="8.65649" y1="5.53537" x2="11.0639" y2="13.5354" gradientUnits="userSpaceOnUse">
<stop stop-color="#090058"/>
<stop offset="1" stop-color="#070033"/>
</linearGradient>
<linearGradient id="paint2_linear_129_1254" x1="5.81976" y1="4.44527" x2="10.079" y2="13.4452" gradientUnits="userSpaceOnUse">
<stop stop-color="#A0CBFF"/>
<stop offset="0.394" stop-color="#A0CBFE"/>
<stop offset="0.583" stop-color="#8EC2FC"/>
<stop offset="0.784" stop-color="#83BCFB"/>
<stop offset="1" stop-color="#7FBAFB"/>
</linearGradient>
<linearGradient id="paint3_linear_129_1254" x1="8.24588" y1="3.27012" x2="12.522" y2="12.3057" gradientUnits="userSpaceOnUse">
<stop stop-color="#A0CBFF"/>
<stop offset="0.394" stop-color="#A0CBFE"/>
<stop offset="0.583" stop-color="#8EC2FC"/>
<stop offset="0.784" stop-color="#83BCFB"/>
<stop offset="1" stop-color="#7FBAFB"/>
</linearGradient>
</defs>
</svg>
