<svg width="21" height="21" viewBox="0 0 21 21" fill="none" xmlns="http://www.w3.org/2000/svg">
<path d="M0.895508 8.40576C0.895508 4.63453 0.895508 2.74891 2.06708 1.57733C3.23865 0.405762 5.12427 0.405762 8.89551 0.405762H12.8955C16.6667 0.405762 18.5524 0.405762 19.7239 1.57733C20.8955 2.74891 20.8955 4.63453 20.8955 8.40576V12.4058C20.8955 16.177 20.8955 18.0626 19.7239 19.2342C18.5524 20.4058 16.6667 20.4058 12.8955 20.4058H8.89551C5.12427 20.4058 3.23865 20.4058 2.06708 19.2342C0.895508 18.0626 0.895508 16.177 0.895508 12.4058V8.40576Z" fill="white"/>
<path d="M10.9599 4.47333C8.13916 4.47333 8.31528 5.69655 8.31528 5.69655L8.31842 6.96384H11.0102V7.34432H7.2493C7.2493 7.34432 5.44434 7.13962 5.44434 9.98568C5.44434 12.8318 7.01975 12.7309 7.01975 12.7309H7.95996V11.4102C7.95996 11.4102 7.90927 9.83475 9.51023 9.83475H12.1799C12.1799 9.83475 13.6799 9.85898 13.6799 8.38511V5.94815C13.6799 5.94815 13.9077 4.47333 10.9599 4.47333ZM9.47564 5.32556C9.53924 5.3255 9.60224 5.33799 9.66102 5.3623C9.71979 5.38662 9.7732 5.42228 9.81818 5.46726C9.86315 5.51224 9.89882 5.56564 9.92313 5.62442C9.94745 5.6832 9.95994 5.74619 9.95988 5.8098C9.95994 5.87341 9.94745 5.9364 9.92313 5.99518C9.89882 6.05396 9.86315 6.10736 9.81818 6.15234C9.7732 6.19732 9.71979 6.23298 9.66102 6.2573C9.60224 6.28161 9.53924 6.2941 9.47564 6.29404C9.41203 6.2941 9.34903 6.28161 9.29026 6.2573C9.23148 6.23298 9.17808 6.19732 9.1331 6.15234C9.08812 6.10736 9.05245 6.05396 9.02814 5.99518C9.00382 5.9364 8.99134 5.87341 8.99139 5.8098C8.99134 5.74619 9.00382 5.6832 9.02814 5.62442C9.05245 5.56564 9.08812 5.51224 9.1331 5.46726C9.17808 5.42228 9.23148 5.38662 9.29026 5.3623C9.34903 5.33799 9.41203 5.3255 9.47564 5.32556Z" fill="url(#paint0_linear_129_1300)"/>
<path d="M11.0401 15.5267C13.8608 15.5267 13.6846 14.3035 13.6846 14.3035L13.6815 13.0362H10.9897V12.6557H14.7506C14.7506 12.6557 16.5555 12.8604 16.5555 10.0143C16.5555 7.16818 14.9801 7.26912 14.9801 7.26912H14.0399V8.5898C14.0399 8.5898 14.0906 10.1652 12.4897 10.1652H9.81993C9.81993 10.1652 8.32 10.141 8.32 11.6149V14.0519C8.32 14.0519 8.09224 15.5267 11.04 15.5267H11.0401ZM12.5243 14.6745C12.4607 14.6746 12.3977 14.6621 12.3389 14.6378C12.2801 14.6135 12.2267 14.5778 12.1817 14.5328C12.1368 14.4879 12.1011 14.4345 12.0768 14.3757C12.0525 14.3169 12.04 14.2539 12.04 14.1903C12.04 14.1267 12.0525 14.0637 12.0768 14.0049C12.1011 13.9461 12.1368 13.8927 12.1817 13.8477C12.2267 13.8028 12.2801 13.7671 12.3389 13.7428C12.3977 13.7185 12.4607 13.706 12.5243 13.706C12.5879 13.706 12.6509 13.7184 12.7097 13.7428C12.7684 13.7671 12.8218 13.8027 12.8668 13.8477C12.9118 13.8927 12.9475 13.9461 12.9718 14.0049C12.9961 14.0637 13.0086 14.1267 13.0085 14.1903C13.0086 14.2539 12.9961 14.3169 12.9718 14.3756C12.9475 14.4344 12.9118 14.4878 12.8668 14.5328C12.8218 14.5778 12.7684 14.6134 12.7097 14.6378C12.6509 14.6621 12.5879 14.6746 12.5243 14.6745V14.6745Z" fill="url(#paint1_linear_129_1300)"/>
<defs>
<linearGradient id="paint0_linear_129_1300" x1="6.51211" y1="5.46751" x2="12.0184" y2="10.9189" gradientUnits="userSpaceOnUse">
<stop stop-color="#387EB8"/>
<stop offset="1" stop-color="#366994"/>
</linearGradient>
<linearGradient id="paint1_linear_129_1300" x1="9.89199" y1="8.96809" x2="15.8052" y2="14.558" gradientUnits="userSpaceOnUse">
<stop stop-color="#FFE052"/>
<stop offset="1" stop-color="#FFC331"/>
</linearGradient>
</defs>
</svg>
