<svg width="21" height="21" viewBox="0 0 21 21" fill="none" xmlns="http://www.w3.org/2000/svg">
<path d="M0.619629 8.40576C0.619629 4.63453 0.619629 2.74891 1.7912 1.57733C2.96277 0.405762 4.84839 0.405762 8.61963 0.405762H12.6196C16.3909 0.405762 18.2765 0.405762 19.4481 1.57733C20.6196 2.74891 20.6196 4.63453 20.6196 8.40576V12.4058C20.6196 16.177 20.6196 18.0626 19.4481 19.2342C18.2765 20.4058 16.3909 20.4058 12.6196 20.4058H8.61963C4.84839 20.4058 2.96277 20.4058 1.7912 19.2342C0.619629 18.0626 0.619629 16.177 0.619629 12.4058V8.40576Z" fill="white"/>
<path d="M11.0001 10.9796C11.5411 10.9796 11.9797 10.541 11.9797 9.99997C11.9797 9.45896 11.5411 9.02039 11.0001 9.02039C10.4591 9.02039 10.0205 9.45896 10.0205 9.99997C10.0205 10.541 10.4591 10.9796 11.0001 10.9796Z" fill="#61DAFB"/>
<path d="M10.9999 12.0069C13.9029 12.0069 16.2562 11.1084 16.2562 9.99999C16.2562 8.89158 13.9029 7.99304 10.9999 7.99304C8.09697 7.99304 5.74365 8.89158 5.74365 9.99999C5.74365 11.1084 8.09697 12.0069 10.9999 12.0069Z" stroke="#61DAFB" stroke-width="5"/>
<path d="M9.26187 11.0035C10.7134 13.5175 12.6682 15.1063 13.6281 14.5521C14.588 13.9979 14.1895 11.5106 12.738 8.99654C11.2865 6.4825 9.3317 4.89373 8.3718 5.44793C7.41189 6.00214 7.81039 8.48944 9.26187 11.0035Z" stroke="#61DAFB" stroke-width="5"/>
<path d="M9.26193 8.99655C7.81045 11.5106 7.41195 13.9979 8.37186 14.5521C9.33176 15.1063 11.2866 13.5175 12.7381 11.0035C14.1896 8.48945 14.5881 6.00215 13.6281 5.44794C12.6682 4.89374 10.7134 6.4825 9.26193 8.99655Z" stroke="#61DAFB" stroke-width="5"/>
</svg>
