<svg width="21" height="21" viewBox="0 0 21 21" fill="none" xmlns="http://www.w3.org/2000/svg">
<path d="M0.447754 8.40576C0.447754 4.63453 0.447754 2.74891 1.61933 1.57733C2.7909 0.405762 4.67652 0.405762 8.44775 0.405762H12.4478C16.219 0.405762 18.1046 0.405762 19.2762 1.57733C20.4478 2.74891 20.4478 4.63453 20.4478 8.40576V12.4058C20.4478 16.177 20.4478 18.0626 19.2762 19.2342C18.1046 20.4058 16.219 20.4058 12.4478 20.4058H8.44775C4.67652 20.4058 2.7909 20.4058 1.61933 19.2342C0.447754 18.0626 0.447754 16.177 0.447754 12.4058V8.40576Z" fill="white"/>
<path d="M6.91289 4.44446H13.065C13.3644 4.44446 13.655 4.4922 13.9371 4.59203C14.3449 4.7396 14.7137 5.00001 14.9913 5.33856C15.2733 5.6771 15.4599 6.09376 15.525 6.52779C15.551 6.68838 15.5553 6.84897 15.5553 7.00956V13.0122C15.5553 13.2031 15.5467 13.3985 15.5076 13.5851C15.4208 14.0148 15.2169 14.4184 14.9219 14.7439C14.6312 15.0695 14.2494 15.3125 13.8373 15.4427C13.5856 15.5208 13.3253 15.5556 13.0607 15.5556C12.9435 15.5556 6.89553 15.5556 6.80442 15.5512C6.36189 15.5295 5.92369 15.3863 5.55491 15.1389C5.19481 14.8958 4.89979 14.5573 4.70889 14.1667C4.54402 13.8325 4.46159 13.4592 4.46159 13.086V6.91408C4.45291 6.54515 4.53101 6.18057 4.69153 5.85071C4.87809 5.46008 5.16878 5.1172 5.52888 4.87415C5.89766 4.62241 6.33152 4.47484 6.77405 4.45314C6.81744 4.44446 6.86516 4.44446 6.91289 4.44446Z" fill="url(#paint0_linear_129_1267)"/>
<path d="M13.8157 13.533C13.7766 13.4722 13.7332 13.4115 13.6855 13.3551C13.577 13.2248 13.4512 13.112 13.3124 13.0165C13.1388 12.8993 12.9349 12.8255 12.7267 12.8169C12.5792 12.8082 12.4317 12.8342 12.2928 12.8863C12.154 12.934 12.0195 13.0035 11.8893 13.0729C11.7375 13.1511 11.5856 13.2292 11.4251 13.2943C11.2342 13.3724 11.0346 13.4332 10.8307 13.4766C10.5747 13.5243 10.3144 13.5417 10.0585 13.5373C9.59423 13.5287 9.13 13.4592 8.68747 13.329C8.29699 13.2118 7.92388 13.0512 7.57245 12.8472C7.26441 12.6693 6.97807 12.4653 6.70907 12.2353C6.48781 12.0443 6.28389 11.8403 6.093 11.6233C5.96284 11.4714 5.83702 11.3108 5.71988 11.1459C5.67215 11.0807 5.62877 11.0113 5.58972 10.9419L4.44434 9.70488V6.9054C4.44434 5.54689 5.542 4.44446 6.89997 4.44446H9.09095L10.7136 6.09376C14.3753 8.58509 13.1909 11.3325 13.1909 11.3325C13.1909 11.3325 14.2322 12.5044 13.8157 13.533Z" fill="url(#paint1_linear_129_1267)"/>
<path d="M10.7224 6.09375C14.3841 8.58507 13.1997 11.3325 13.1997 11.3325C13.1997 11.3325 14.241 12.5087 13.8201 13.5373C13.8201 13.5373 13.3906 12.8168 12.6704 12.8168C11.9762 12.8168 11.5684 13.5373 10.1714 13.5373C7.06062 13.5373 5.58984 10.9375 5.58984 10.9375C8.39256 12.7821 10.3059 11.4757 10.3059 11.4757C9.04334 10.7422 6.35777 7.23524 6.35777 7.23524C8.69626 9.22743 9.70715 9.75261 9.70715 9.75261C9.10408 9.25348 7.41204 6.81424 7.41204 6.81424C8.76568 8.18577 11.4556 10.0998 11.4556 10.0998C12.2192 7.98177 10.7224 6.09375 10.7224 6.09375Z" fill="white"/>
<defs>
<linearGradient id="paint0_linear_129_1267" x1="11.0515" y1="4.04797" x2="8.95147" y2="15.9531" gradientUnits="userSpaceOnUse">
<stop stop-color="#FAAE42"/>
<stop offset="1" stop-color="#EF3E31"/>
</linearGradient>
<linearGradient id="paint1_linear_129_1267" x1="10.111" y1="4.62397" x2="8.57406" y2="13.3372" gradientUnits="userSpaceOnUse">
<stop stop-color="#E39F3A"/>
<stop offset="1" stop-color="#D33929"/>
</linearGradient>
</defs>
</svg>
