<svg width="21" height="21" viewBox="0 0 21 21" fill="none" xmlns="http://www.w3.org/2000/svg">
<path d="M0.0673828 8.40576C0.0673828 4.63453 0.0673828 2.74891 1.23896 1.57733C2.41053 0.405762 4.29615 0.405762 8.06738 0.405762H12.0674C15.8386 0.405762 17.7242 0.405762 18.8958 1.57733C20.0674 2.74891 20.0674 4.63453 20.0674 8.40576V12.4058C20.0674 16.177 20.0674 18.0626 18.8958 19.2342C17.7242 20.4058 15.8386 20.4058 12.0674 20.4058H8.06738C4.29615 20.4058 2.41053 20.4058 1.23896 19.2342C0.0673828 18.0626 0.0673828 16.177 0.0673828 12.4058V8.40576Z" fill="white"/>
<path d="M13.3332 5.20837H15.5554L9.99989 14.7917L4.44434 5.20837H8.69434L9.99989 7.4306L11.2777 5.20837H13.3332Z" fill="#41B883"/>
<path d="M4.44434 5.20837L9.99989 14.7917L15.5554 5.20837H13.3332L9.99989 10.9584L6.63878 5.20837H4.44434Z" fill="#41B883"/>
<path d="M6.63867 5.20837L9.99979 10.9861L13.3331 5.20837H11.2776L9.99979 7.43059L8.69423 5.20837H6.63867Z" fill="#35495E"/>
</svg>
