<svg width="21" height="21" viewBox="0 0 21 21" fill="none" xmlns="http://www.w3.org/2000/svg">
<path d="M0.895508 8.40576C0.895508 4.63453 0.895508 2.74891 2.06708 1.57733C3.23865 0.405762 5.12427 0.405762 8.89551 0.405762H12.8955C16.6667 0.405762 18.5524 0.405762 19.7239 1.57733C20.8955 2.74891 20.8955 4.63453 20.8955 8.40576V12.4058C20.8955 16.177 20.8955 18.0626 19.7239 19.2342C18.5524 20.4058 16.6667 20.4058 12.8955 20.4058H8.89551C5.12427 20.4058 3.23865 20.4058 2.06708 19.2342C0.895508 18.0626 0.895508 16.177 0.895508 12.4058V8.40576Z" fill="white"/>
<path d="M5.90723 5.04639H16.0924V14.9538H5.90723V5.04639Z" fill="#2E001E"/>
<path d="M5.44434 4.58337V15.4167H16.5555V4.58337H5.44434ZM5.9073 5.04634H16.0925V14.9537H5.9073V5.04634Z" fill="#FF2BC2"/>
<path d="M13.5137 9.13431C13.4442 9.1019 13.3563 9.08801 13.2451 9.08801C12.6618 9.08801 12.2729 9.53709 12.2729 10.2825C12.2729 11.1343 12.6711 11.4769 13.1896 11.4769C13.3007 11.4769 13.4211 11.463 13.509 11.426V9.13431H13.5137ZM11.4396 10.3195C11.4396 9.24079 12.134 8.3982 13.2729 8.3982C13.3701 8.3982 13.4211 8.3982 13.5137 8.40746V7.20376C13.5137 7.17598 13.5368 7.15746 13.56 7.15746H14.3053C14.3424 7.15746 14.3516 7.17135 14.3516 7.1945V11.426C14.3516 11.551 14.3516 11.7084 14.3748 11.8797C14.3748 11.9121 14.3748 11.9167 14.347 11.9306C13.9581 12.1158 13.5507 12.1991 13.1618 12.1991C12.1572 12.1991 11.4396 11.5787 11.4396 10.3195ZM9.86089 9.56949L11.1572 12.0834C11.1803 12.1204 11.1664 12.1575 11.1294 12.1575H10.3238C10.2729 12.1575 10.2498 12.1436 10.2266 12.0973C9.93033 11.4862 9.62941 10.8519 9.31922 10.1945H9.30996C9.03218 10.8149 8.72663 11.4908 8.43033 12.1019C8.40718 12.1389 8.38404 12.1528 8.347 12.1528H7.57848C7.53218 12.1528 7.52755 12.1158 7.5507 12.088L8.81922 9.6482L7.59237 7.22228C7.56459 7.18524 7.59237 7.15283 7.62478 7.15283H8.42107C8.46737 7.15283 8.49052 7.16209 8.50441 7.20376C8.79607 7.8195 9.09237 8.42598 9.37015 9.04635H9.37941C9.64792 8.43524 9.94422 7.8195 10.2266 7.21302C10.2498 7.17598 10.2637 7.15283 10.31 7.15283H11.0553C11.0924 7.15283 11.1063 7.18061 11.0831 7.22228L9.86089 9.56949Z" fill="#FF2BC2"/>
</svg>
